<mxfile host="65bd71144e">
    <diagram id="bZ1BdipDuvtAOriQluZx" name="ページ1">
        <mxGraphModel dx="591" dy="468" grid="1" gridSize="10" guides="1" tooltips="1" connect="1" arrows="1" fold="1" page="1" pageScale="1" pageWidth="827" pageHeight="1169" math="0" shadow="0">
            <root>
                <mxCell id="0"/>
                <mxCell id="1" parent="0"/>
                <object label="" type="initialstate" id="2">
                    <mxCell style="ellipse;html=1;shape=startState;fillColor=#000000;strokeColor=#ff0000;" vertex="1" parent="1">
                        <mxGeometry x="140" y="170" width="30" height="30" as="geometry"/>
                    </mxCell>
                </object>
                <mxCell id="3" value="" style="edgeStyle=orthogonalEdgeStyle;html=1;verticalAlign=bottom;endArrow=open;endSize=8;strokeColor=#ff0000;entryX=0;entryY=0.5;entryDx=0;entryDy=0;" edge="1" source="2" parent="1" target="24">
                    <mxGeometry relative="1" as="geometry">
                        <mxPoint x="260" y="185" as="targetPoint"/>
                    </mxGeometry>
                </mxCell>
                <mxCell id="9" style="edgeStyle=none;html=1;exitX=1;exitY=0.25;exitDx=0;exitDy=0;entryX=0;entryY=0.25;entryDx=0;entryDy=0;" edge="1" parent="1" source="24" target="25">
                    <mxGeometry relative="1" as="geometry">
                        <mxPoint x="400" y="172" as="sourcePoint"/>
                        <mxPoint x="520" y="172" as="targetPoint"/>
                    </mxGeometry>
                </mxCell>
                <mxCell id="10" value="pushLeft" style="edgeLabel;html=1;align=center;verticalAlign=middle;resizable=0;points=[];" vertex="1" connectable="0" parent="9">
                    <mxGeometry x="-0.2667" y="-2" relative="1" as="geometry">
                        <mxPoint x="16" y="-15" as="offset"/>
                    </mxGeometry>
                </mxCell>
                <mxCell id="11" style="edgeStyle=none;html=1;exitX=0;exitY=0.75;exitDx=0;exitDy=0;entryX=1;entryY=0.75;entryDx=0;entryDy=0;" edge="1" parent="1" source="25" target="24">
                    <mxGeometry relative="1" as="geometry">
                        <mxPoint x="520" y="198" as="sourcePoint"/>
                        <mxPoint x="400" y="198" as="targetPoint"/>
                    </mxGeometry>
                </mxCell>
                <mxCell id="12" value="pushRight" style="edgeLabel;html=1;align=center;verticalAlign=middle;resizable=0;points=[];" vertex="1" connectable="0" parent="11">
                    <mxGeometry x="-0.1833" y="-3" relative="1" as="geometry">
                        <mxPoint x="-11" y="16" as="offset"/>
                    </mxGeometry>
                </mxCell>
                <object label="Off" type="state" id="24">
                    <mxCell style="html=1;rounded=1;container=0;" vertex="1" parent="1">
                        <mxGeometry x="270" y="159" width="110" height="50" as="geometry"/>
                    </mxCell>
                </object>
                <object label="On" type="state" id="25">
                    <mxCell style="html=1;rounded=1;container=0;" vertex="1" parent="1">
                        <mxGeometry x="540" y="159" width="110" height="50" as="geometry"/>
                    </mxCell>
                </object>
            </root>
        </mxGraphModel>
    </diagram>
</mxfile>